<svg width="98" height="98" viewBox="0 0 98 98" fill="none" xmlns="http://www.w3.org/2000/svg">
<g filter="url(#filter0_bii_67_826)">
<circle cx="49" cy="49" r="49" fill="#585EA6" fill-opacity="0.1"/>
</g>
<path d="M59.08 64H42.6V60.2C42.6 58.28 42.8533 56.68 43.36 55.4C43.8667 54.0933 44.5467 53.0267 45.4 52.2C46.2533 51.3467 47.1867 50.6667 48.2 50.16L50.92 48.8C51.96 48.2667 52.8 47.7067 53.44 47.12C54.1067 46.5067 54.44 45.72 54.44 44.76V44.04C54.44 43.0533 54.0933 42.28 53.4 41.72C52.7333 41.1333 51.6533 40.84 50.16 40.84C49.2533 40.84 48.3333 40.9733 47.4 41.24C46.4933 41.5067 45.3867 41.88 44.08 42.36L42.6 38.24C44.0933 37.5733 45.4533 37.1067 46.68 36.84C47.9333 36.5467 49.1467 36.4 50.32 36.4C52.48 36.4 54.2 36.7467 55.48 37.44C56.7867 38.1333 57.72 39.0667 58.28 40.24C58.8667 41.3867 59.16 42.6533 59.16 44.04V44.76C59.16 46.2 58.8667 47.4267 58.28 48.44C57.72 49.4533 56.9733 50.3067 56.04 51C55.1067 51.6933 54.0933 52.3067 53 52.84L50.28 54.2C49.2933 54.68 48.56 55.3467 48.08 56.2C47.6267 57.0533 47.3733 58.1467 47.32 59.48H59.08V64Z" fill="#232D95"/>
<defs>
<filter id="filter0_bii_67_826" x="-13.0667" y="-13.0667" width="124.133" height="124.133" filterUnits="userSpaceOnUse" color-interpolation-filters="sRGB">
<feFlood flood-opacity="0" result="BackgroundImageFix"/>
<feGaussianBlur in="BackgroundImage" stdDeviation="6.53333"/>
<feComposite in2="SourceAlpha" operator="in" result="effect1_backgroundBlur_67_826"/>
<feBlend mode="normal" in="SourceGraphic" in2="effect1_backgroundBlur_67_826" result="shape"/>
<feColorMatrix in="SourceAlpha" type="matrix" values="0 0 0 0 0 0 0 0 0 0 0 0 0 0 0 0 0 0 127 0" result="hardAlpha"/>
<feOffset dx="-6.53333" dy="6.53333"/>
<feGaussianBlur stdDeviation="3.26667"/>
<feComposite in2="hardAlpha" operator="arithmetic" k2="-1" k3="1"/>
<feColorMatrix type="matrix" values="0 0 0 0 1 0 0 0 0 1 0 0 0 0 1 0 0 0 0.1 0"/>
<feBlend mode="normal" in2="shape" result="effect2_innerShadow_67_826"/>
<feColorMatrix in="SourceAlpha" type="matrix" values="0 0 0 0 0 0 0 0 0 0 0 0 0 0 0 0 0 0 127 0" result="hardAlpha"/>
<feOffset dx="6.53333" dy="-6.53333"/>
<feGaussianBlur stdDeviation="3.26667"/>
<feComposite in2="hardAlpha" operator="arithmetic" k2="-1" k3="1"/>
<feColorMatrix type="matrix" values="0 0 0 0 0.262275 0 0 0 0 0.280157 0 0 0 0 0.494745 0 0 0 0.1 0"/>
<feBlend mode="normal" in2="effect2_innerShadow_67_826" result="effect3_innerShadow_67_826"/>
</filter>
</defs>
</svg>
