<svg width="65" height="65" viewBox="0 0 65 65" fill="none" xmlns="http://www.w3.org/2000/svg">
<path d="M36.8333 28.1667H28.1667C26.975 28.1667 26 27.1917 26 26V21.6667C26 18.07 28.9033 15.1667 32.5 15.1667C36.0967 15.1667 39 18.07 39 21.6667V26C39 27.1917 38.025 28.1667 36.8333 28.1667ZM30.3333 23.8333H34.6667V21.6667C34.6667 20.475 33.6917 19.5 32.5 19.5C31.3083 19.5 30.3333 20.475 30.3333 21.6667V23.8333Z" fill="#232D95"/>
<path d="M39 23.8333H26C22.4101 23.8333 19.5 26.7435 19.5 30.3333V43.3333C19.5 46.9232 22.4101 49.8333 26 49.8333H39C42.5899 49.8333 45.5 46.9232 45.5 43.3333V30.3333C45.5 26.7435 42.5899 23.8333 39 23.8333Z" fill="#7780E0"/>
<path d="M36.8333 34.6667C36.8333 32.2833 34.9266 30.3117 32.5216 30.3117C30.1383 30.3117 28.1666 32.2183 28.1666 34.6233C28.1666 36.1833 28.99 37.6133 30.3333 38.3933V41.1667C30.3333 42.3583 31.3083 43.3333 32.5 43.3333C33.6916 43.3333 34.6666 42.3583 34.6666 41.1667V38.3933C36.01 37.6133 36.8333 36.205 36.8333 34.6667Z" fill="#232D95"/>
<path d="M32.5 13C31.3084 13 30.3334 12.025 30.3334 10.8333V6.50001C30.3334 5.30834 31.3084 4.33334 32.5 4.33334C33.6917 4.33334 34.6667 5.30834 34.6667 6.50001V10.8333C34.6667 12.025 33.6917 13 32.5 13Z" fill="#D8E1EF"/>
<path d="M43.3333 23.8333C42.7483 23.8333 42.2067 23.6167 41.795 23.205C40.95 22.36 40.95 20.995 41.795 20.15L49.8333 12.1117V8.66667C49.8333 7.475 50.8083 6.5 52 6.5C53.1917 6.5 54.1666 7.475 54.1666 8.66667V13C54.1666 13.585 53.95 14.1267 53.5383 14.5383L44.8717 23.205C44.46 23.6167 43.9183 23.8333 43.3333 23.8333Z" fill="#D8E1EF"/>
<path d="M21.6667 23.8333C21.0817 23.8333 20.54 23.6167 20.1284 23.205L11.4617 14.5383C11.05 14.1267 10.8334 13.585 10.8334 13V8.66667C10.8334 7.475 11.8084 6.5 13 6.5C14.1917 6.5 15.1667 7.475 15.1667 8.66667V12.1117L23.205 20.1283C24.05 20.9733 24.05 22.3383 23.205 23.1833C22.7934 23.595 22.2517 23.8333 21.6667 23.8333Z" fill="#D8E1EF"/>
<path d="M52 58.5C50.8084 58.5 49.8334 57.525 49.8334 56.3334V52.8883L46.1284 49.205C45.2834 48.36 45.2834 46.9733 46.1284 46.1283C46.9734 45.2833 48.36 45.2833 49.205 46.1283L53.5384 50.4617C53.95 50.8734 54.1667 51.415 54.1667 52V56.3334C54.1667 57.525 53.1917 58.5 52 58.5Z" fill="#D8E1EF"/>
<path d="M13 58.5C11.8084 58.5 10.8334 57.525 10.8334 56.3334V52C10.8334 51.415 11.05 50.8734 11.4617 50.4617L15.795 46.1283C16.64 45.2833 18.0267 45.2833 18.8717 46.1283C19.7167 46.9733 19.7167 48.36 18.8717 49.205L15.1667 52.8883V56.3334C15.1667 57.525 14.1917 58.5 13 58.5Z" fill="#D8E1EF"/>
<path d="M32.5 60.6667C31.3084 60.6667 30.3334 59.6917 30.3334 58.5V54.1667C30.3334 52.975 31.3084 52 32.5 52C33.6917 52 34.6667 52.975 34.6667 54.1667V58.5C34.6667 59.6917 33.6917 60.6667 32.5 60.6667Z" fill="#D8E1EF"/>
<path d="M58.5 34.6667H49.8333C48.6416 34.6667 47.6666 33.6917 47.6666 32.5C47.6666 31.3083 48.6416 30.3333 49.8333 30.3333H58.5C59.6916 30.3333 60.6666 31.3083 60.6666 32.5C60.6666 33.6917 59.6916 34.6667 58.5 34.6667Z" fill="#D8E1EF"/>
<path d="M15.1667 34.6667H6.50004C5.30837 34.6667 4.33337 33.6917 4.33337 32.5C4.33337 31.3083 5.30837 30.3333 6.50004 30.3333H15.1667C16.3584 30.3333 17.3334 31.3083 17.3334 32.5C17.3334 33.6917 16.3584 34.6667 15.1667 34.6667Z" fill="#D8E1EF"/>
<path d="M52 10.8333C49.6167 10.8333 47.6667 8.90499 47.645 6.52166C47.645 4.13832 49.5734 2.18832 51.9567 2.16666C54.34 2.16666 56.29 4.09499 56.3117 6.47832C56.3117 7.62666 55.8567 8.73166 55.055 9.55499C54.2534 10.3783 53.1484 10.8333 52 10.8333Z" fill="#D8E1EF"/>
<path d="M13 10.8333C10.6167 10.8333 8.66669 8.90499 8.64502 6.52166C8.64502 4.13832 10.5734 2.18832 12.9567 2.16666C15.34 2.16666 17.29 4.09499 17.3117 6.47832C17.3117 7.62666 16.8567 8.73166 16.055 9.55499C15.2534 10.3783 14.1484 10.8333 13 10.8333Z" fill="#D8E1EF"/>
<path d="M52 62.8333C49.6167 62.8333 47.6667 60.905 47.645 58.5217C47.645 56.1383 49.5734 54.1883 51.9567 54.1667C54.34 54.1667 56.29 56.095 56.3117 58.4783C56.3117 59.6267 55.8567 60.7317 55.055 61.555C54.2534 62.3783 53.1484 62.8333 52 62.8333Z" fill="#D8E1EF"/>
<path d="M13 62.8333C10.6167 62.8333 8.66669 60.905 8.64502 58.5217C8.64502 56.1383 10.5734 54.1883 12.9567 54.1667C15.34 54.1667 17.29 56.095 17.3117 58.4783C17.3117 59.6267 16.8567 60.7317 16.055 61.555C15.2534 62.3783 14.1484 62.8333 13 62.8333Z" fill="#D8E1EF"/>
<path d="M60.6667 36.8333C63.0599 36.8333 65 34.8932 65 32.5C65 30.1068 63.0599 28.1667 60.6667 28.1667C58.2735 28.1667 56.3334 30.1068 56.3334 32.5C56.3334 34.8932 58.2735 36.8333 60.6667 36.8333Z" fill="#D8E1EF"/>
<path d="M4.33333 36.8333C6.72657 36.8333 8.66667 34.8932 8.66667 32.5C8.66667 30.1068 6.72657 28.1667 4.33333 28.1667C1.9401 28.1667 0 30.1068 0 32.5C0 34.8932 1.9401 36.8333 4.33333 36.8333Z" fill="#D8E1EF"/>
<path d="M32.5 65C30.1166 65 28.1666 63.05 28.1666 60.6667C28.1666 58.2833 30.1166 56.3333 32.5 56.3333C34.8833 56.3333 36.8333 58.2833 36.8333 60.6667C36.8333 63.05 34.8833 65 32.5 65Z" fill="#D8E1EF"/>
<path d="M32.5 8.66667C30.1166 8.66667 28.1666 6.71667 28.1666 4.33333C28.1666 1.95 30.1166 0 32.5 0C34.8833 0 36.8333 1.95 36.8333 4.33333C36.8333 6.71667 34.8833 8.66667 32.5 8.66667Z" fill="#D8E1EF"/>
</svg>
