<svg width="32" height="22" viewBox="0 0 32 22" fill="none" xmlns="http://www.w3.org/2000/svg">
<path d="M16.103 0H16.281C17.9251 0.00587241 26.2556 0.0645968 28.5018 0.655753C29.1808 0.83617 29.7996 1.18784 30.2962 1.67561C30.7929 2.16338 31.15 2.77018 31.332 3.43536C31.534 4.1792 31.676 5.1638 31.772 6.17973L31.792 6.38331L31.836 6.89225L31.852 7.09583C31.982 8.88495 31.998 10.5605 32 10.9266V11.0734C31.998 11.4532 31.98 13.2423 31.836 15.1058L31.82 15.3113L31.802 15.5149C31.702 16.6346 31.554 17.7464 31.332 18.5646C31.1506 19.2301 30.7936 19.8372 30.2969 20.325C29.8001 20.8129 29.1811 21.1644 28.5018 21.3442C26.1816 21.955 17.3631 21.998 16.141 22H15.857C15.239 22 12.6828 21.9883 10.0026 21.8982L9.6626 21.8865L9.48859 21.8786L9.14657 21.8649L8.80455 21.8512C6.58441 21.7553 4.47028 21.6007 3.49622 21.3423C2.81716 21.1626 2.19827 20.8114 1.70156 20.3239C1.20484 19.8364 0.847747 19.2297 0.666042 18.5646C0.444028 17.7484 0.296019 16.6346 0.196012 15.5149L0.180011 15.3094L0.16401 15.1058C0.0652993 13.7794 0.0106004 12.4502 0 11.1204L0 10.8796C0.00400025 10.4588 0.0200013 9.00436 0.128008 7.39923L0.142009 7.19762L0.148009 7.09583L0.16401 6.89225L0.208013 6.38331L0.228014 6.17973C0.32402 5.1638 0.466029 4.17724 0.668042 3.43536C0.84944 2.76991 1.2064 2.16283 1.70313 1.67497C2.19987 1.18711 2.81892 0.835629 3.49822 0.655753C4.47228 0.401282 6.58641 0.244684 8.80655 0.14681L9.14657 0.133108L9.49059 0.121363L9.6626 0.115491L10.0046 0.101789C11.9082 0.0418404 13.8125 0.00855975 15.717 0.00195756H16.103V0ZM12.8008 6.28348V15.7146L21.1153 11.001L12.8008 6.28348Z" fill="#F8F8F8"/>
</svg>
